<svg id="Layer_1" data-name="Layer 1" xmlns="http://www.w3.org/2000/svg" viewBox="0 0 287.33 230"><defs><style>.cls-1{fill:#299951;opacity:0.15;isolation:isolate;}.cls-2{fill:#131312;}.cls-10,.cls-3,.cls-4,.cls-5,.cls-6,.cls-7,.cls-8,.cls-9{fill:none;}.cls-11,.cls-4,.cls-5,.cls-6,.cls-7{stroke:#000;}.cls-4,.cls-5,.cls-6,.cls-7{stroke-width:0.25px;}.cls-5,.cls-6,.cls-7{stroke-miterlimit:10;}.cls-6{stroke-dasharray:1.02 1.02;}.cls-7{stroke-dasharray:1 1;}.cls-10,.cls-8,.cls-9{stroke:#069;stroke-linecap:round;}.cls-9{stroke-dasharray:2 2;}.cls-10{stroke-dasharray:2.06 2.06;}.cls-11{fill:#48a0b5;stroke-width:0.5px;}</style></defs><path class="cls-1" d="M81.08,196.58V106.16l-.17.34C121.25,53,179.58,35.09,225.14,87.14l.06,0V196.54"/><path class="cls-2" d="M45.42,196.75"/><line class="cls-3" x1="72.33" y1="196.83" x2="73.33" y2="196.83"/><line class="cls-4" y1="196.75" x2="281.03" y2="196.75"/><path d="M279.64,196.75l-1.69-2.7L278,194l4.54,1.75,4.75,1-4.75,1L278,199.51l-.09,0Z"/><line class="cls-4" x1="45.33" y1="230" x2="45.33" y2="6.11"/><path d="M45.33,7.46,42.63,9.1,42.57,9l1.75-4.4c.34-1.54.67-3.07,1-4.61l1,4.61L48.1,9l-.05.09Z"/><path class="cls-5" d="M45.38,57.22h1.55"/><path class="cls-6" d="M50.1,57.22h100"/><path class="cls-5" d="M151.66,57.22h1.55"/><path class="cls-5" d="M45.45,196.5v-72"/><path class="cls-5" d="M81.24,196.75V106.32"/><path class="cls-5" d="M153.28,196.67V57"/><path class="cls-5" d="M225.37,196.71V87.32"/><path class="cls-5" d="M45.33,87.3h.5"/><path class="cls-7" d="M46.83,87.3H224.5"/><path class="cls-5" d="M225,87.3h.5"/><path class="cls-8" d="M225.3,87.31l.66.75"/><path class="cls-9" d="M227.25,89.59a161.52,161.52,0,0,1,15.41,22.16"/><path class="cls-8" d="M243.17,112.62c.16.29.33.58.5.87"/><path class="cls-8" d="M81.07,106.67c40.35-53.55,98.67-71.42,144.23-19.36"/><path class="cls-8" d="M58,145.49l.42-.91"/><path class="cls-10" d="M59.31,142.72a215.36,215.36,0,0,1,20.55-34.43"/><path class="cls-8" d="M80.47,107.47l.6-.8"/><circle class="cls-11" cx="153.17" cy="57.17" r="1.84"/><path class="cls-5" d="M45.17,106.72h.51"/><path class="cls-6" d="M46.74,106.72H80"/><path class="cls-5" d="M80.52,106.72H81"/><circle class="cls-11" cx="225.33" cy="87.25" r="1.84"/><circle class="cls-11" cx="81" cy="106.67" r="1.84"/><path d="M78.06,206.25a.46.46,0,0,1,.28-.1l.14,0a.71.71,0,0,1,.16.07l.2.11.08,0H79a.31.31,0,0,0,.22-.07s.19-.22.41-.51.47-.66,1-1.41c0,0,0-.23-.13-.63s-.17-.72-.25-1a1.83,1.83,0,0,0-.2-.55.37.37,0,0,0-.33-.13l-.32.05-.33.09,0-.18.65-.23.47-.14a1.81,1.81,0,0,1,.36-.05.44.44,0,0,1,.37.15,2.19,2.19,0,0,1,.32.92l.12.67a11.14,11.14,0,0,1,.82-1.14,2.38,2.38,0,0,1,.5-.44.86.86,0,0,1,.45-.15.73.73,0,0,1,.32.06.39.39,0,0,1,.22.4.45.45,0,0,1-.11.31.4.4,0,0,1-.29.11l-.12,0-.12,0-.16-.06-.12,0a.18.18,0,0,0-.09,0c-.17,0-.42.22-.73.68a3.31,3.31,0,0,0-.47.79,5.57,5.57,0,0,0,.11.57q.1.48.24,1a4.39,4.39,0,0,0,.2.7c.09.21.19.32.3.32a.44.44,0,0,0,.32-.18,5.41,5.41,0,0,0,.5-.63l.16.1a4.59,4.59,0,0,1-.52.78,1.35,1.35,0,0,1-1,.61.53.53,0,0,1-.47-.28,2.29,2.29,0,0,1-.19-.54l-.36-1.45-1.2,1.58A3.93,3.93,0,0,1,79,207a.77.77,0,0,1-.47.14.55.55,0,0,1-.51-.23.58.58,0,0,1-.07-.3A.34.34,0,0,1,78.06,206.25Z"/><path d="M85.14,206.9a0,0,0,0,1,0,0l-.68,2.42a.92.92,0,0,0,0,.23.29.29,0,0,0,0,.09.09.09,0,0,0,.08,0c.08,0,.18-.07.31-.2s.17-.2.27-.34l.09.07,0,0a3.32,3.32,0,0,1-.42.51.81.81,0,0,1-.51.25.29.29,0,0,1-.24-.13.4.4,0,0,1-.1-.28c0-.07,0-.13,0-.18s0-.12.06-.21l.48-1.74s0,0,0-.08a.13.13,0,0,0,0-.06q0-.13-.09-.15a1.33,1.33,0,0,0-.35,0v-.12l.4,0,.25,0a2.65,2.65,0,0,0,.3-.06A.42.42,0,0,1,85.14,206.9Zm-.32-.85a.39.39,0,0,1,0-.52.27.27,0,0,1,.23-.11.28.28,0,0,1,.24.11.39.39,0,0,1,0,.52.3.3,0,0,1-.24.11A.3.3,0,0,1,84.82,206.05Z"/><rect x="85.92" y="207.97" width="3.63" height="0.38"/><path d="M91.47,205.34s0,0,0,0v4.08c0,.17,0,.28.14.33a1.3,1.3,0,0,0,.52.09V210H90.22v-.1a1.12,1.12,0,0,0,.54-.11.5.5,0,0,0,.12-.4v-3.14a.52.52,0,0,0,0-.24c0-.06-.08-.09-.17-.09a.8.8,0,0,0-.23.05,1.56,1.56,0,0,0-.26.11V206l1.24-.63h0Z"/><path d="M15.79,102.54a.47.47,0,0,1-.36.16.43.43,0,0,1-.33-.13.38.38,0,0,1-.13-.3,1.52,1.52,0,0,1,.11-.4.17.17,0,0,0-.07-.14.3.3,0,0,0-.16,0c-.3,0-.54.32-.74.94a14.69,14.69,0,0,0-.37,1.84H15l-.08.4H13.63l-1.12,3.82a8,8,0,0,1-1,2.46,1.78,1.78,0,0,1-1.53.93,1.07,1.07,0,0,1-.7-.22.69.69,0,0,1-.27-.51.57.57,0,0,1,.11-.33.41.41,0,0,1,.34-.15.45.45,0,0,1,.34.13.43.43,0,0,1,.14.32.49.49,0,0,1-.06.22.37.37,0,0,0-.06.15.09.09,0,0,0,.06.08.34.34,0,0,0,.18,0c.33,0,.61-.26.84-.79a6.53,6.53,0,0,0,.34-1.13l1.39-5H11.58l.09-.4H12.8a7,7,0,0,1,.72-2,1.72,1.72,0,0,1,1.47-1,1,1,0,0,1,.66.23.66.66,0,0,1,.26.52A.6.6,0,0,1,15.79,102.54Z"/><path d="M22,108.85a.48.48,0,0,1,.29-.1l.14,0,.15.07.21.11a.13.13,0,0,0,.08,0h.08a.32.32,0,0,0,.23-.07c.05,0,.19-.22.41-.51s.47-.66,1-1.4c0,0,0-.24-.13-.63s-.18-.73-.25-1a2,2,0,0,0-.2-.55.37.37,0,0,0-.33-.13,1.73,1.73,0,0,0-.32.06l-.33.08,0-.18.65-.23.47-.14a1.81,1.81,0,0,1,.36-.05.44.44,0,0,1,.37.15,2.19,2.19,0,0,1,.32.92l.12.67a11.14,11.14,0,0,1,.82-1.14,2.38,2.38,0,0,1,.5-.44.8.8,0,0,1,.44-.15.78.78,0,0,1,.33.06.41.41,0,0,1,.22.4.43.43,0,0,1-.11.31.42.42,0,0,1-.29.11H27l-.13-.05-.15-.06-.12-.05a.18.18,0,0,0-.09,0c-.17,0-.42.22-.73.68a3.54,3.54,0,0,0-.47.79,5.08,5.08,0,0,0,.11.57q.11.48.24,1a3.32,3.32,0,0,0,.2.7c.08.22.19.32.3.32a.46.46,0,0,0,.32-.17,5.77,5.77,0,0,0,.49-.64l.17.1a4.59,4.59,0,0,1-.52.78,1.37,1.37,0,0,1-1,.61.51.51,0,0,1-.46-.28,1.91,1.91,0,0,1-.19-.54l-.37-1.45L23.44,109a3.49,3.49,0,0,1-.54.55.79.79,0,0,1-.47.14.55.55,0,0,1-.51-.23.58.58,0,0,1-.08-.3A.36.36,0,0,1,22,108.85Z"/><path d="M29.06,109.5s0,0,0,0L28.39,112a1.3,1.3,0,0,0,0,.23.15.15,0,0,0,0,.09.09.09,0,0,0,.08,0c.08,0,.18-.07.31-.2s.16-.19.27-.34l.09.07,0,0a3.32,3.32,0,0,1-.42.51.76.76,0,0,1-.51.25.27.27,0,0,1-.24-.13.4.4,0,0,1-.1-.28.81.81,0,0,1,0-.17s0-.12.05-.22l.49-1.74s0,0,0-.07a.2.2,0,0,0,0-.07.14.14,0,0,0-.09-.15,1.33,1.33,0,0,0-.35,0v-.11l.4-.06.24,0a1.55,1.55,0,0,0,.31-.06C29,109.5,29.05,109.49,29.06,109.5Zm-.32-.85a.42.42,0,0,1,0-.52.32.32,0,0,1,.48,0,.35.35,0,0,1,.1.26.34.34,0,0,1-.1.26.32.32,0,0,1-.48,0Z"/><rect x="29.85" y="110.57" width="3.63" height="0.38"/><path d="M35.4,107.94v4.12c0,.17.05.29.14.33a1.38,1.38,0,0,0,.52.09v.09H34.15v-.1a1.15,1.15,0,0,0,.54-.11c.08-.06.12-.19.12-.4v-3.13a.54.54,0,0,0,0-.25.18.18,0,0,0-.18-.09.82.82,0,0,0-.22.05l-.27.11v-.1l1.25-.63h0Z"/><path d="M20.59,113.24l-.12.29c-.16,0-.5-.34-1-1a9.34,9.34,0,0,1-1.3-2.47,10.7,10.7,0,0,1-.54-3.76,10.9,10.9,0,0,1,.53-3.77,9.51,9.51,0,0,1,1.3-2.47c.51-.68.84-1,1-1l.12.29a5.55,5.55,0,0,0-1.16,1.74,11,11,0,0,0-.47,1.64,11.63,11.63,0,0,0-.25,1.73c-.05.55-.07,1.16-.07,1.85s0,1.22.06,1.82A13.87,13.87,0,0,0,19,110a9.05,9.05,0,0,0,.54,1.74A6.48,6.48,0,0,0,20.59,113.24Z"/><path d="M38.41,113.53l-.12-.29a5.75,5.75,0,0,0,1.17-1.75,10.37,10.37,0,0,0,.46-1.65,12.84,12.84,0,0,0,.26-1.72c0-.6.06-1.22.06-1.85s0-1.21-.06-1.83a13,13,0,0,0-.28-1.88,10,10,0,0,0-.55-1.75,6.56,6.56,0,0,0-1.06-1.5l.12-.29c.17,0,.5.33,1,1a10.28,10.28,0,0,1,1.3,2.47,13.67,13.67,0,0,1,0,7.54,9.43,9.43,0,0,1-1.3,2.46C38.92,113.19,38.58,113.53,38.41,113.53Z"/><path d="M149.81,206.3a.53.53,0,0,1,.28-.1l.14,0,.16.07.2.11.08,0h.09a.31.31,0,0,0,.22-.07c.05-.05.19-.22.41-.51s.47-.66,1-1.4c0,0,0-.24-.13-.63s-.17-.73-.25-1a2,2,0,0,0-.2-.55.37.37,0,0,0-.33-.13,1.73,1.73,0,0,0-.32.06l-.33.08-.05-.18.65-.22a4,4,0,0,1,.47-.14,1.34,1.34,0,0,1,.36-.06.44.44,0,0,1,.37.15,2.25,2.25,0,0,1,.32.93l.12.66a10.73,10.73,0,0,1,.82-1.13,2.47,2.47,0,0,1,.5-.45.86.86,0,0,1,.45-.15.73.73,0,0,1,.32.06.4.4,0,0,1,.22.4.43.43,0,0,1-.11.31.36.36,0,0,1-.29.11h-.12l-.12,0-.16-.06-.12-.05-.09,0c-.17,0-.42.23-.73.68a3.54,3.54,0,0,0-.47.79,5.08,5.08,0,0,0,.11.57c.07.32.15.67.24,1a4.61,4.61,0,0,0,.2.71c.09.21.19.31.3.31a.43.43,0,0,0,.32-.17c.11-.12.28-.33.5-.63l.16.09a4.59,4.59,0,0,1-.52.78,1.35,1.35,0,0,1-1,.61.53.53,0,0,1-.47-.28,2.29,2.29,0,0,1-.19-.54l-.36-1.44-1.2,1.57a3.43,3.43,0,0,1-.55.55.71.71,0,0,1-.47.14.53.53,0,0,1-.51-.23.54.54,0,0,1-.07-.29A.36.36,0,0,1,149.81,206.3Z"/><path d="M156.89,207a0,0,0,0,1,0,0l-.68,2.42c0,.13-.05.21-.05.23a.24.24,0,0,0,0,.09s0,0,.08,0,.18-.07.31-.2a3.09,3.09,0,0,0,.27-.34l.09.08,0,0a4.16,4.16,0,0,1-.42.52.79.79,0,0,1-.51.24.29.29,0,0,1-.24-.12.43.43,0,0,1-.1-.29c0-.07,0-.12,0-.17s0-.12,0-.22l.49-1.74s0-.05,0-.07a.17.17,0,0,0,0-.07.14.14,0,0,0-.09-.15,1.33,1.33,0,0,0-.35,0v-.11l.4,0,.25,0,.3-.06A.55.55,0,0,1,156.89,207Zm-.32-.84a.37.37,0,0,1-.1-.26.36.36,0,0,1,.1-.27.3.3,0,0,1,.23-.11.32.32,0,0,1,.24.11.36.36,0,0,1,.1.27.35.35,0,0,1-.1.26.31.31,0,0,1-.24.1A.29.29,0,0,1,156.57,206.11Z"/><path d="M22.47,53.54a.43.43,0,0,1-.35.16.42.42,0,0,1-.33-.13.38.38,0,0,1-.13-.3,1.52,1.52,0,0,1,.11-.4.19.19,0,0,0-.08-.14.25.25,0,0,0-.16,0c-.29,0-.54.32-.73.94a16.26,16.26,0,0,0-.38,1.84h1.31l-.08.4H20.32l-1.13,3.82a7.75,7.75,0,0,1-1,2.46,1.78,1.78,0,0,1-1.53.93,1,1,0,0,1-.7-.22.7.7,0,0,1-.28-.51.52.52,0,0,1,.12-.33.41.41,0,0,1,.34-.15.47.47,0,0,1,.34.13.43.43,0,0,1,.14.32.4.4,0,0,1-.07.22.37.37,0,0,0-.06.15s0,.06.07.08a.31.31,0,0,0,.17,0c.34,0,.62-.26.85-.79A5.84,5.84,0,0,0,18,60.88l1.4-5H18.27l.08-.4h1.14a7,7,0,0,1,.72-2,1.71,1.71,0,0,1,1.46-1,1,1,0,0,1,.67.23.69.69,0,0,1,.26.52A.55.55,0,0,1,22.47,53.54Z"/><path d="M28.67,59.85a.48.48,0,0,1,.29-.1l.14,0,.15.07.21.11a.11.11,0,0,0,.08,0h.08a.33.33,0,0,0,.23-.07,5.61,5.61,0,0,0,.4-.51c.15-.2.48-.66,1-1.4,0,0,0-.24-.14-.63s-.17-.73-.24-1a2.34,2.34,0,0,0-.2-.55.37.37,0,0,0-.33-.13l-.32.06-.33.08-.05-.18.65-.23.46-.14a2,2,0,0,1,.37,0,.45.45,0,0,1,.37.15,2.21,2.21,0,0,1,.31.92l.13.67a9.76,9.76,0,0,1,.82-1.14,2.16,2.16,0,0,1,.5-.44.8.8,0,0,1,.44-.15.73.73,0,0,1,.32.06.4.4,0,0,1,.23.4.43.43,0,0,1-.11.31.42.42,0,0,1-.29.11h-.12l-.13,0L33.43,56l-.12,0a.18.18,0,0,0-.09,0c-.18,0-.42.22-.73.68a3.13,3.13,0,0,0-.47.79,3.37,3.37,0,0,0,.11.57l.23,1a5.31,5.31,0,0,0,.2.7c.09.22.19.32.31.32a.48.48,0,0,0,.32-.17,7.38,7.38,0,0,0,.49-.64l.17.1a4.59,4.59,0,0,1-.53.78,1.35,1.35,0,0,1-1,.61.51.51,0,0,1-.46-.28,1.91,1.91,0,0,1-.19-.54l-.37-1.45L30.13,60a3.49,3.49,0,0,1-.54.55.82.82,0,0,1-.47.14.55.55,0,0,1-.51-.23.58.58,0,0,1-.08-.3A.36.36,0,0,1,28.67,59.85Z"/><path d="M35.75,60.5l0,0L35.08,63a2,2,0,0,0,0,.23.16.16,0,0,0,0,.09.08.08,0,0,0,.08,0c.08,0,.18-.07.3-.2a3,3,0,0,0,.28-.34l.09.07,0,0a3.32,3.32,0,0,1-.42.51.73.73,0,0,1-.5.25.3.3,0,0,1-.25-.13.45.45,0,0,1-.09-.28.81.81,0,0,1,0-.17s0-.12,0-.22l.48-1.74a.25.25,0,0,0,0-.07s0,0,0-.07a.14.14,0,0,0-.09-.15,1.37,1.37,0,0,0-.36,0v-.11l.41-.06.24,0a1.55,1.55,0,0,0,.31-.06A.38.38,0,0,1,35.75,60.5Zm-.32-.85a.39.39,0,0,1,0-.52.32.32,0,0,1,.48,0,.4.4,0,0,1,.1.26.38.38,0,0,1-.1.26.32.32,0,0,1-.48,0Z"/><path d="M27.28,64.24l-.12.29c-.17,0-.5-.34-1-1A9.34,9.34,0,0,1,24.86,61a10.7,10.7,0,0,1-.54-3.76,11.17,11.17,0,0,1,.52-3.77A9.85,9.85,0,0,1,26.15,51c.5-.68.84-1,1-1l.12.29a5.37,5.37,0,0,0-1.16,1.74,11,11,0,0,0-.47,1.64,11.72,11.72,0,0,0-.26,1.73c0,.55-.07,1.16-.07,1.85s0,1.22.06,1.82a12.68,12.68,0,0,0,.3,1.9,9.05,9.05,0,0,0,.54,1.74A6.19,6.19,0,0,0,27.28,64.24Z"/><path d="M38.41,64.53l-.12-.29a5.75,5.75,0,0,0,1.17-1.75,10.37,10.37,0,0,0,.46-1.65,12.84,12.84,0,0,0,.26-1.72c0-.6.06-1.22.06-1.85s0-1.21-.06-1.83a13,13,0,0,0-.28-1.88,10,10,0,0,0-.55-1.75,6.56,6.56,0,0,0-1.06-1.5l.12-.29c.17,0,.5.33,1,1a10.28,10.28,0,0,1,1.3,2.47,11.14,11.14,0,0,1,.53,3.77A11.14,11.14,0,0,1,40.72,61a9.43,9.43,0,0,1-1.3,2.46C38.92,64.19,38.58,64.53,38.41,64.53Z"/><path d="M221.81,206.25a.46.46,0,0,1,.28-.1l.14,0a.71.71,0,0,1,.16.07l.2.11.08,0h.09a.31.31,0,0,0,.22-.07c.05,0,.19-.22.41-.51s.47-.66,1-1.41c0,0,0-.23-.13-.63s-.17-.72-.25-1a1.83,1.83,0,0,0-.2-.55.37.37,0,0,0-.33-.13l-.32.05-.33.09-.05-.18.65-.23.47-.14a1.81,1.81,0,0,1,.36-.05.44.44,0,0,1,.37.15,2.19,2.19,0,0,1,.32.92l.12.67a11.14,11.14,0,0,1,.82-1.14,2.38,2.38,0,0,1,.5-.44.86.86,0,0,1,.45-.15.73.73,0,0,1,.32.06.39.39,0,0,1,.22.4.45.45,0,0,1-.11.31.4.4,0,0,1-.29.11l-.12,0-.12,0-.16-.06-.12,0a.18.18,0,0,0-.09,0c-.17,0-.42.22-.73.68a3.31,3.31,0,0,0-.47.79,5.57,5.57,0,0,0,.11.57q.11.48.24,1a4.39,4.39,0,0,0,.2.7c.09.21.19.32.3.32a.44.44,0,0,0,.32-.18,5.41,5.41,0,0,0,.5-.63l.16.1a4.59,4.59,0,0,1-.52.78,1.37,1.37,0,0,1-1,.61.53.53,0,0,1-.47-.28,2.29,2.29,0,0,1-.19-.54l-.36-1.45-1.2,1.58a3.93,3.93,0,0,1-.55.55.77.77,0,0,1-.47.14.55.55,0,0,1-.51-.23.58.58,0,0,1-.07-.3A.34.34,0,0,1,221.81,206.25Z"/><path d="M228.89,206.9a0,0,0,0,1,0,0l-.68,2.42a2,2,0,0,0-.05.23.29.29,0,0,0,0,.09.09.09,0,0,0,.08,0c.08,0,.18-.07.31-.2s.17-.2.27-.34l.09.07,0,0a3.32,3.32,0,0,1-.42.51.81.81,0,0,1-.51.25.29.29,0,0,1-.24-.13.4.4,0,0,1-.1-.28c0-.07,0-.13,0-.18l0-.21.49-1.74s0,0,0-.08a.13.13,0,0,0,0-.06q0-.13-.09-.15a1.33,1.33,0,0,0-.35,0v-.12l.4,0,.25,0a2.65,2.65,0,0,0,.3-.06A.42.42,0,0,1,228.89,206.9Zm-.32-.85a.39.39,0,0,1,0-.52.27.27,0,0,1,.23-.11.29.29,0,0,1,.24.11.39.39,0,0,1,0,.52.32.32,0,0,1-.24.11A.3.3,0,0,1,228.57,206.05Z"/><path d="M231.31,207.9v-1.63h.38v1.63h1.64v.38h-1.64V210h-.38v-1.69h-1.65v-.38Z"/><path d="M235.22,205.34s0,0,0,0v4.08c0,.17,0,.28.14.33a1.3,1.3,0,0,0,.52.09V210H234v-.1a1.12,1.12,0,0,0,.54-.11.5.5,0,0,0,.12-.4v-3.14a.52.52,0,0,0,0-.24c0-.06-.08-.09-.17-.09a.8.8,0,0,0-.23.05,1.56,1.56,0,0,0-.26.11V206l1.24-.63h0Z"/><path d="M15.79,82.79a.47.47,0,0,1-.36.16.43.43,0,0,1-.33-.13.38.38,0,0,1-.13-.3,1.52,1.52,0,0,1,.11-.4A.17.17,0,0,0,15,82a.3.3,0,0,0-.16,0c-.3,0-.54.32-.74.94a14.69,14.69,0,0,0-.37,1.84H15l-.08.4H13.63l-1.12,3.82a8,8,0,0,1-1,2.46,1.78,1.78,0,0,1-1.53.93,1.07,1.07,0,0,1-.7-.22.69.69,0,0,1-.27-.51.57.57,0,0,1,.11-.33.41.41,0,0,1,.34-.15.45.45,0,0,1,.34.13.43.43,0,0,1,.14.32.49.49,0,0,1-.06.22.37.37,0,0,0-.06.15.09.09,0,0,0,.06.08.34.34,0,0,0,.18,0c.33,0,.61-.26.84-.79a6.53,6.53,0,0,0,.34-1.13l1.39-5H11.58l.09-.4H12.8a7,7,0,0,1,.72-2,1.72,1.72,0,0,1,1.47-1,1,1,0,0,1,.66.23.66.66,0,0,1,.26.52A.6.6,0,0,1,15.79,82.79Z"/><path d="M22,89.1a.48.48,0,0,1,.29-.1l.14,0,.15.07.21.11a.13.13,0,0,0,.08,0h.08a.32.32,0,0,0,.23-.07c.05,0,.19-.22.41-.51s.47-.66,1-1.4c0,0,0-.24-.13-.63s-.18-.73-.25-1a2,2,0,0,0-.2-.55.37.37,0,0,0-.33-.13,1.73,1.73,0,0,0-.32.06l-.33.08,0-.18.65-.23.47-.14a1.81,1.81,0,0,1,.36-.05.44.44,0,0,1,.37.15,2.19,2.19,0,0,1,.32.92l.12.67a11.14,11.14,0,0,1,.82-1.14,2.38,2.38,0,0,1,.5-.44A.8.8,0,0,1,27,84.5a.78.78,0,0,1,.33.06.41.41,0,0,1,.22.4.43.43,0,0,1-.11.31.42.42,0,0,1-.29.11H27l-.13-.05-.15-.06-.12-.05a.18.18,0,0,0-.09,0c-.17,0-.42.22-.73.68a3.54,3.54,0,0,0-.47.79,5.08,5.08,0,0,0,.11.57q.11.48.24,1a3.32,3.32,0,0,0,.2.7c.08.22.19.32.3.32a.46.46,0,0,0,.32-.17,5.77,5.77,0,0,0,.49-.64l.17.1a4.59,4.59,0,0,1-.52.78,1.37,1.37,0,0,1-1,.61.51.51,0,0,1-.46-.28,1.91,1.91,0,0,1-.19-.54l-.37-1.45-1.2,1.58a3.49,3.49,0,0,1-.54.55.79.79,0,0,1-.47.14.55.55,0,0,1-.51-.23.58.58,0,0,1-.08-.3A.36.36,0,0,1,22,89.1Z"/><path d="M29.06,89.75s0,0,0,0l-.69,2.42a1.3,1.3,0,0,0,0,.23.15.15,0,0,0,0,.09.09.09,0,0,0,.08,0c.08,0,.18-.07.31-.2s.16-.19.27-.34l.09.07,0,0a3.32,3.32,0,0,1-.42.51.76.76,0,0,1-.51.25.27.27,0,0,1-.24-.13.4.4,0,0,1-.1-.28.81.81,0,0,1,0-.17s0-.12.05-.22l.49-1.74s0,0,0-.07a.2.2,0,0,0,0-.07.14.14,0,0,0-.09-.15A1.33,1.33,0,0,0,28,90v-.11l.4-.06.24,0a1.55,1.55,0,0,0,.31-.06C29,89.75,29.05,89.74,29.06,89.75Zm-.32-.85a.42.42,0,0,1,0-.52.32.32,0,0,1,.48,0,.35.35,0,0,1,.1.26.34.34,0,0,1-.1.26.32.32,0,0,1-.48,0Z"/><path d="M31.49,90.76V89.12h.37v1.64h1.65v.38H31.86v1.68h-.37V91.14H29.84v-.38Z"/><path d="M35.4,88.19v4.12c0,.17.05.29.14.33a1.38,1.38,0,0,0,.52.09v.09H34.15v-.1a1.15,1.15,0,0,0,.54-.11c.08-.06.12-.19.12-.4V89.08a.54.54,0,0,0,0-.25.18.18,0,0,0-.18-.09.82.82,0,0,0-.22.05l-.27.11v-.1l1.25-.63h0Z"/><path d="M20.59,93.49l-.12.29c-.16,0-.5-.34-1-1a9.34,9.34,0,0,1-1.3-2.47,10.7,10.7,0,0,1-.54-3.76,10.9,10.9,0,0,1,.53-3.77,9.51,9.51,0,0,1,1.3-2.47c.51-.68.84-1,1-1l.12.29a5.55,5.55,0,0,0-1.16,1.74A11,11,0,0,0,19,82.94a11.63,11.63,0,0,0-.25,1.73c-.05.55-.07,1.16-.07,1.85s0,1.22.06,1.82a13.87,13.87,0,0,0,.29,1.9A9.05,9.05,0,0,0,19.53,92,6.48,6.48,0,0,0,20.59,93.49Z"/><path d="M38.41,93.78l-.12-.29a5.75,5.75,0,0,0,1.17-1.75,10.37,10.37,0,0,0,.46-1.65,12.84,12.84,0,0,0,.26-1.72c0-.6.06-1.22.06-1.85s0-1.21-.06-1.83a13,13,0,0,0-.28-1.88,10,10,0,0,0-.55-1.75,6.56,6.56,0,0,0-1.06-1.5l.12-.29c.17,0,.5.33,1,1a10.28,10.28,0,0,1,1.3,2.47,13.67,13.67,0,0,1,0,7.54,9.43,9.43,0,0,1-1.3,2.46C38.92,93.44,38.58,93.78,38.41,93.78Z"/><path d="M280.73,207.74l2.71-3.16-1.55-3.06h1.17l.53,1.1c.19.42.37.81.52,1.19l1.8-2.29h1.29l-2.61,3.14,1.57,3.08H285l-.62-1.27c-.14-.27-.29-.6-.46-1l-1.85,2.27Z"/><path d="M35.2,9.14l.06-1a2.08,2.08,0,0,0,.64.1.82.82,0,0,0,.52-.15A2.45,2.45,0,0,0,37,7.37l.34-.61-1-6.24h1l.47,3.14c.09.62.17,1.24.24,1.87l2.78-5h1.11l-4,7a4.38,4.38,0,0,1-1,1.37,1.66,1.66,0,0,1-1,.33A2.18,2.18,0,0,1,35.2,9.14Z"/><path d="M35.75,203.5a7.86,7.86,0,0,1,.31-2.45,3,3,0,0,1,.93-1.43,2.38,2.38,0,0,1,1.56-.51,2.6,2.6,0,0,1,1.21.28,2.36,2.36,0,0,1,.86.8,4.29,4.29,0,0,1,.54,1.28,8.45,8.45,0,0,1,.19,2,7.79,7.79,0,0,1-.31,2.44,3.11,3.11,0,0,1-.93,1.44A2.6,2.6,0,0,1,36.6,207,5.61,5.61,0,0,1,35.75,203.5Zm1.08,0a5.4,5.4,0,0,0,.5,2.82,1.41,1.41,0,0,0,2.44,0,5.34,5.34,0,0,0,.5-2.81,5.4,5.4,0,0,0-.5-2.82,1.47,1.47,0,0,0-1.23-.69,1.34,1.34,0,0,0-1.16.61A5.39,5.39,0,0,0,36.83,203.5Z"/><path d="M117.31,47.56a.41.41,0,0,1,.34-.13.51.51,0,0,1,.25,0,1.11,1.11,0,0,1,.24.16l.08.06.08,0h.1c.19,0,.5-.25.92-.76a2.26,2.26,0,0,0,.64-1.1,8,8,0,0,0-.22-1.29c-.15-.64-.29-1.21-.43-1.7a6.17,6.17,0,0,0-.52-1.43.79.79,0,0,0-.7-.38H118l-.29,0V41l1.59-.31h.13c.1,0,.28.43.56,1.32a14.66,14.66,0,0,1,.47,1.75l.23,1.39c.41-.68.71-1.21.91-1.58a4.18,4.18,0,0,0,.56-1.52.48.48,0,0,0,0-.2.28.28,0,0,0-.16-.16l-.1-.06a.93.93,0,0,1-.22-.17.5.5,0,0,1-.13-.35.41.41,0,0,1,.12-.3.45.45,0,0,1,.35-.13.65.65,0,0,1,.48.18.79.79,0,0,1,.18.59,5.36,5.36,0,0,1-.69,2,21,21,0,0,1-1.17,2.06,20.54,20.54,0,0,1-1.4,1.91c-.63.7-1.14,1.06-1.55,1.06a.68.68,0,0,1-.43-.15.49.49,0,0,1-.18-.4A.47.47,0,0,1,117.31,47.56Z"/><path d="M125.6,41.26h6.31v.66H125.6Zm0,2.33h6.31v.66H125.6Z"/><path d="M139.34,40.87a.89.89,0,0,1,.21.34l0,.08.13-.44,0-.1s0,0,.09,0l.67-.08s.06,0,.06,0a.08.08,0,0,1,0,.07l0,.12a1.11,1.11,0,0,1,0,.13l-.58,2.1c-.13.45-.24.85-.33,1.18a9,9,0,0,0-.21,1,.16.16,0,0,0,0,.12.21.21,0,0,0,.11,0,.41.41,0,0,0,.12,0l.15-.11.11-.08.11-.09.15-.14.38-.38.14.13a6.09,6.09,0,0,1-1,1,1.24,1.24,0,0,1-.73.28.42.42,0,0,1-.34-.15.6.6,0,0,1-.12-.38,3.54,3.54,0,0,1,.08-.6c0-.27.1-.49.15-.67a5.9,5.9,0,0,1-.35.52,4.07,4.07,0,0,1-.61.65A3.2,3.2,0,0,1,137,46a1.77,1.77,0,0,1-.58.1,1.17,1.17,0,0,1-.86-.39,1.48,1.48,0,0,1-.39-1.1A4.1,4.1,0,0,1,136.23,42a3.18,3.18,0,0,1,2.38-1.39A1,1,0,0,1,139.34,40.87Zm-.19.22a.66.66,0,0,0-.48-.2c-.64,0-1.24.49-1.79,1.47a4.67,4.67,0,0,0-.73,2.22,1,1,0,0,0,.2.69.67.67,0,0,0,.5.21c.59,0,1.16-.47,1.7-1.42a4.61,4.61,0,0,0,.79-2.35A.85.85,0,0,0,139.15,41.09Z"/><path d="M140.74,45.22a.56.56,0,0,1,.29-.1l.14,0,.15.07.21.11a.13.13,0,0,0,.08,0h.08a.32.32,0,0,0,.23-.07c.05,0,.19-.22.41-.51s.47-.66,1-1.4c0,0,0-.24-.13-.63s-.18-.73-.25-1a2,2,0,0,0-.2-.55.37.37,0,0,0-.33-.13l-.32.06-.33.08L141.7,41l.65-.23.47-.14a1.81,1.81,0,0,1,.36,0,.44.44,0,0,1,.37.15,2.19,2.19,0,0,1,.32.92l.12.67a9.74,9.74,0,0,1,.82-1.13,2.47,2.47,0,0,1,.5-.45.8.8,0,0,1,.44-.15.78.78,0,0,1,.33.06.42.42,0,0,1,.22.4.43.43,0,0,1-.11.31.38.38,0,0,1-.29.11h-.12l-.13-.05-.15-.06-.12-.05-.09,0c-.17,0-.42.23-.73.68a3.54,3.54,0,0,0-.47.79,5.08,5.08,0,0,0,.11.57q.11.48.24,1a4.92,4.92,0,0,0,.19.71c.09.21.2.31.31.31a.48.48,0,0,0,.32-.17,5.77,5.77,0,0,0,.49-.64l.17.1a4.59,4.59,0,0,1-.52.78,1.37,1.37,0,0,1-1,.61.51.51,0,0,1-.46-.28,1.91,1.91,0,0,1-.19-.54l-.37-1.45-1.2,1.58a3.49,3.49,0,0,1-.54.55.73.73,0,0,1-.47.14.51.51,0,0,1-.59-.52A.37.37,0,0,1,140.74,45.22Z"/><path d="M147.21,40.49a24.61,24.61,0,0,0,1.68-1.89,1.94,1.94,0,0,0,.44-1.17,1,1,0,0,0-.27-.77.9.9,0,0,0-.64-.26,1,1,0,0,0-.76.34,2.25,2.25,0,0,0-.3.57l-.15,0a1.79,1.79,0,0,1,.58-1.08,1.43,1.43,0,0,1,.87-.3,1.22,1.22,0,0,1,.92.36,1.19,1.19,0,0,1,.36.88,1.74,1.74,0,0,1-.39,1.07A23.47,23.47,0,0,1,147.89,40h1.56a1,1,0,0,0,.45-.08,1,1,0,0,0,.3-.38l.09,0-.38,1h-2.7v-.08Z"/><path d="M156.59,42.37V39.55h.66v2.82h2.84V43h-2.84v2.91h-.66V43h-2.85v-.66Z"/><path d="M164.32,38.92c0-.09,0-.16.05-.23a1.21,1.21,0,0,0,0-.18.4.4,0,0,0,0-.15.37.37,0,0,0-.18-.11l-.14,0-.42,0V38l.41,0,.6-.08.35-.08a3.15,3.15,0,0,1,.45-.07.09.09,0,0,1,.06,0,.08.08,0,0,1,0,.07v.07l-1.2,4.43a7.56,7.56,0,0,1,.89-1.09,2,2,0,0,1,1.32-.59,1.31,1.31,0,0,1,1,.43,1.48,1.48,0,0,1,.39,1,3.86,3.86,0,0,1-1.27,2.73,3.66,3.66,0,0,1-2.56,1.23,2.28,2.28,0,0,1-1.11-.27c-.34-.17-.49-.31-.46-.42Zm1.78,5.54a4.1,4.1,0,0,0,.81-2.22,1.07,1.07,0,0,0-.24-.73.77.77,0,0,0-.6-.27c-.62,0-1.21.55-1.78,1.66a5.63,5.63,0,0,0-.73,2.41.49.49,0,0,0,.14.36.67.67,0,0,0,.46.14A2.46,2.46,0,0,0,166.1,44.46Z"/><path d="M168.06,45.22a.53.53,0,0,1,.28-.1l.14,0,.16.07.2.11.08,0H169a.31.31,0,0,0,.22-.07c.05,0,.19-.22.41-.51s.47-.66,1-1.4c0,0,0-.24-.13-.63s-.17-.73-.25-1a2,2,0,0,0-.2-.55.37.37,0,0,0-.33-.13l-.32.06-.33.08L169,41l.65-.23.47-.14a1.81,1.81,0,0,1,.36,0,.44.44,0,0,1,.37.15,2.19,2.19,0,0,1,.32.92l.12.67a9.74,9.74,0,0,1,.82-1.13,2.47,2.47,0,0,1,.5-.45.86.86,0,0,1,.45-.15.73.73,0,0,1,.32.06.4.4,0,0,1,.22.4.43.43,0,0,1-.11.31.36.36,0,0,1-.29.11h-.12l-.12-.05-.16-.06-.12-.05-.09,0c-.17,0-.42.23-.73.68a3.54,3.54,0,0,0-.47.79,5.08,5.08,0,0,0,.11.57q.11.48.24,1a4.61,4.61,0,0,0,.2.71c.09.21.19.31.3.31a.46.46,0,0,0,.32-.17,7,7,0,0,0,.5-.64l.16.1a4.59,4.59,0,0,1-.52.78,1.35,1.35,0,0,1-1,.61.53.53,0,0,1-.47-.28,2.29,2.29,0,0,1-.19-.54l-.36-1.45-1.2,1.58a3.93,3.93,0,0,1-.55.55.71.71,0,0,1-.47.14.49.49,0,0,1-.58-.52A.35.35,0,0,1,168.06,45.22Z"/><path d="M178.84,42.37V39.55h.66v2.82h2.84V43H179.5v2.91h-.66V43H176v-.66Z"/><path d="M189.53,41a1,1,0,0,1,.32.63.54.54,0,0,1-.17.42.51.51,0,0,1-.38.16.53.53,0,0,1-.37-.14.45.45,0,0,1-.14-.33.75.75,0,0,1,.09-.33.6.6,0,0,0,.1-.23.21.21,0,0,0-.12-.18.75.75,0,0,0-.38-.07A2,2,0,0,0,186.84,42a4.14,4.14,0,0,0-.7,2.26,1.66,1.66,0,0,0,.29,1,1,1,0,0,0,.84.38,1.72,1.72,0,0,0,.88-.26,3.75,3.75,0,0,0,.78-.67l0,0,.17.13a4.61,4.61,0,0,1-.79.8,2.53,2.53,0,0,1-1.5.48,1.68,1.68,0,0,1-1.27-.5,1.88,1.88,0,0,1-.48-1.36,3.45,3.45,0,0,1,1.08-2.45,3.17,3.17,0,0,1,2.32-1.12A1.41,1.41,0,0,1,189.53,41Z"/></svg>